<svg width="10" height="9" viewBox="0 0 10 9" fill="none" xmlns="http://www.w3.org/2000/svg">
<path d="M8.73007 3.46409L6.31007 3.25409L5.36507 1.02909C5.19507 0.624092 4.61507 0.624092 4.44507 1.02909L3.50007 3.25909L1.08507 3.46409C0.645066 3.49909 0.465066 4.04909 0.800066 4.33909L2.63507 5.92909L2.08507 8.28909C1.98507 8.71909 2.45007 9.05909 2.83007 8.82909L4.90507 7.57909L6.98007 8.83409C7.36007 9.06409 7.82507 8.72409 7.72507 8.29409L7.17507 5.92909L9.01007 4.33909C9.34507 4.04909 9.17006 3.49909 8.73007 3.46409ZM4.90507 6.64409L3.02507 7.77909L3.52507 5.63909L1.86507 4.19909L4.05507 4.00909L4.90507 1.99409L5.76007 4.01409L7.95007 4.20409L6.29007 5.64409L6.79007 7.78409L4.90507 6.64409Z" fill="#1A1C1E"/>
</svg>
