<svg width="19" height="21" viewBox="0 0 19 21" fill="none" xmlns="http://www.w3.org/2000/svg">
<path fill-rule="evenodd" clip-rule="evenodd" d="M14.9443 10.8865C18.9443 10.8865 20.0115 7.29123 17.7557 4.54256C16.288 2.75416 14.2456 1.52999 11.9765 1.07864C9.70744 0.627286 7.35204 0.976676 5.31167 2.06728C3.2713 3.15788 1.6722 4.92221 0.786842 7.05966C-0.0985162 9.1971 -0.215355 11.5754 0.456234 13.7893C1.12782 16.0033 2.54629 17.9158 4.46993 19.2012C6.39358 20.4865 7.91626 20.8865 10.0256 20.8865C12.135 20.8865 14.0256 19.1907 14.0256 16.8865C14.0256 15.1684 13.2684 14.4511 12.7386 13.9493L12.7386 13.9493C12.5579 13.7782 12.4036 13.632 12.3149 13.4798C11.6539 12.3452 12.3524 10.8865 13.6655 10.8865H14.9443ZM10.0256 18.8864C11.1302 18.8864 12.0256 17.991 12.0256 16.8864C12.0256 15.7819 11.1302 14.8864 10.0256 14.8864C8.92107 14.8864 8.02564 15.7819 8.02564 16.8864C8.02564 17.991 8.92107 18.8864 10.0256 18.8864ZM5.94563 10.8464C5.94563 11.9289 5.06811 12.8064 3.98564 12.8064C2.90316 12.8064 2.02563 11.9289 2.02563 10.8464C2.02563 9.76396 2.90316 8.88644 3.98564 8.88644C5.06811 8.88644 5.94563 9.76396 5.94563 10.8464ZM10.0256 4.88644C10.5779 4.88644 11.0256 4.43872 11.0256 3.88644C11.0256 3.33415 10.5779 2.88644 10.0256 2.88644C9.47335 2.88644 9.02563 3.33415 9.02563 3.88644C9.02563 4.43872 9.47335 4.88644 10.0256 4.88644ZM7.35207 5.75728C7.35207 6.53048 6.72527 7.15728 5.95207 7.15728C5.17887 7.15728 4.55207 6.53048 4.55207 5.75728C4.55207 4.98408 5.17887 4.35728 5.95207 4.35728C6.72527 4.35728 7.35207 4.98408 7.35207 5.75728Z" fill="#001D33"/>
</svg>
