<svg width="14" height="15" viewBox="0 0 14 15" fill="none" xmlns="http://www.w3.org/2000/svg">
<path d="M13.5556 1.19557C13.1656 0.805567 12.5356 0.805567 12.1456 1.19557L7.25559 6.07557L2.36559 1.18557C1.97559 0.795566 1.34559 0.795566 0.955586 1.18557C0.565586 1.57557 0.565586 2.20557 0.955586 2.59557L5.84559 7.48557L0.955586 12.3756C0.565586 12.7656 0.565586 13.3956 0.955586 13.7856C1.34559 14.1756 1.97559 14.1756 2.36559 13.7856L7.25559 8.89557L12.1456 13.7856C12.5356 14.1756 13.1656 14.1756 13.5556 13.7856C13.9456 13.3956 13.9456 12.7656 13.5556 12.3756L8.66559 7.48557L13.5556 2.59557C13.9356 2.21557 13.9356 1.57557 13.5556 1.19557Z" fill="#1A1C1E"/>
</svg>
