<svg width="65" height="69" viewBox="0 0 65 69" fill="none" xmlns="http://www.w3.org/2000/svg">
<g filter="url(#filter0_d_185_1610)">
<circle cx="32.0378" cy="24.3501" r="24" fill="white"/>
</g>
<g clip-path="url(#clip0_185_1610)">
<path d="M32.0378 20.6135C29.8278 20.6135 28.0378 22.4035 28.0378 24.6135C28.0378 26.8235 29.8278 28.6135 32.0378 28.6135C34.2478 28.6135 36.0378 26.8235 36.0378 24.6135C36.0378 22.4035 34.2478 20.6135 32.0378 20.6135ZM40.9778 23.6135C40.5178 19.4435 37.2078 16.1335 33.0378 15.6735V14.6135C33.0378 14.0635 32.5878 13.6135 32.0378 13.6135C31.4878 13.6135 31.0378 14.0635 31.0378 14.6135V15.6735C26.8678 16.1335 23.5578 19.4435 23.0978 23.6135H22.0378C21.4878 23.6135 21.0378 24.0635 21.0378 24.6135C21.0378 25.1635 21.4878 25.6135 22.0378 25.6135H23.0978C23.5578 29.7835 26.8678 33.0935 31.0378 33.5535V34.6135C31.0378 35.1635 31.4878 35.6135 32.0378 35.6135C32.5878 35.6135 33.0378 35.1635 33.0378 34.6135V33.5535C37.2078 33.0935 40.5178 29.7835 40.9778 25.6135H42.0378C42.5878 25.6135 43.0378 25.1635 43.0378 24.6135C43.0378 24.0635 42.5878 23.6135 42.0378 23.6135H40.9778ZM32.0378 31.6135C28.1678 31.6135 25.0378 28.4835 25.0378 24.6135C25.0378 20.7435 28.1678 17.6135 32.0378 17.6135C35.9078 17.6135 39.0378 20.7435 39.0378 24.6135C39.0378 28.4835 35.9078 31.6135 32.0378 31.6135Z" fill="#00639C"/>
</g>
<defs>
<filter id="filter0_d_185_1610" x="0.0378418" y="0.350098" width="64" height="68" filterUnits="userSpaceOnUse" color-interpolation-filters="sRGB">
<feFlood flood-opacity="0" result="BackgroundImageFix"/>
<feColorMatrix in="SourceAlpha" type="matrix" values="0 0 0 0 0 0 0 0 0 0 0 0 0 0 0 0 0 0 127 0" result="hardAlpha"/>
<feOffset dy="12"/>
<feGaussianBlur stdDeviation="4"/>
<feComposite in2="hardAlpha" operator="out"/>
<feColorMatrix type="matrix" values="0 0 0 0 0 0 0 0 0 0.2 0 0 0 0 0.329412 0 0 0 0.2 0"/>
<feBlend mode="normal" in2="BackgroundImageFix" result="effect1_dropShadow_185_1610"/>
<feBlend mode="normal" in="SourceGraphic" in2="effect1_dropShadow_185_1610" result="shape"/>
</filter>
<clipPath id="clip0_185_1610">
<rect width="24" height="24" fill="white" transform="translate(20.0378 12.6135)"/>
</clipPath>
</defs>
</svg>
