<svg width="49" height="49" viewBox="0 0 49 49" fill="none" xmlns="http://www.w3.org/2000/svg">
<g clip-path="url(#clip0_155_955)">
<path d="M18.6545 31.4856C18.6545 32.5856 19.5545 33.4856 20.6545 33.4856H28.6545C29.7545 33.4856 30.6545 32.5856 30.6545 31.4856V21.4856C30.6545 20.3856 29.7545 19.4856 28.6545 19.4856H20.6545C19.5545 19.4856 18.6545 20.3856 18.6545 21.4856V31.4856ZM30.6545 16.4856H28.1545L27.4445 15.7756C27.2645 15.5956 27.0045 15.4856 26.7445 15.4856H22.5645C22.3045 15.4856 22.0445 15.5956 21.8645 15.7756L21.1545 16.4856H18.6545C18.1045 16.4856 17.6545 16.9356 17.6545 17.4856C17.6545 18.0356 18.1045 18.4856 18.6545 18.4856H30.6545C31.2045 18.4856 31.6545 18.0356 31.6545 17.4856C31.6545 16.9356 31.2045 16.4856 30.6545 16.4856Z" fill="#1A1C1E"/>
</g>
<defs>
<clipPath id="clip0_155_955">
<rect width="24" height="24" fill="white" transform="translate(12.6545 12.4856)"/>
</clipPath>
</defs>
</svg>
