<svg width="17" height="17" viewBox="0 0 17 17" fill="none" xmlns="http://www.w3.org/2000/svg">
<circle cx="8.05957" cy="8.91528" r="8" fill="#8492A3"/>
<g clip-path="url(#clip0_251_2252)">
<path d="M11.2097 5.77039C11.0147 5.57539 10.6997 5.57539 10.5047 5.77039L8.05968 8.21039L5.61468 5.76539C5.41968 5.57039 5.10468 5.57039 4.90968 5.76539C4.71468 5.96039 4.71468 6.27539 4.90968 6.47039L7.35468 8.91539L4.90968 11.3604C4.71468 11.5554 4.71468 11.8704 4.90968 12.0654C5.10468 12.2604 5.41968 12.2604 5.61468 12.0654L8.05968 9.62039L10.5047 12.0654C10.6997 12.2604 11.0147 12.2604 11.2097 12.0654C11.4047 11.8704 11.4047 11.5554 11.2097 11.3604L8.76468 8.91539L11.2097 6.47039C11.3997 6.28039 11.3997 5.96039 11.2097 5.77039Z" fill="white"/>
</g>
<defs>
<clipPath id="clip0_251_2252">
<rect width="12" height="12" fill="white" transform="translate(2.05957 2.91528)"/>
</clipPath>
</defs>
</svg>
