<svg width="19" height="19" viewBox="0 0 19 19" fill="none" xmlns="http://www.w3.org/2000/svg">
<path d="M0.66748 15.9153C0.66748 16.4653 1.11748 16.9153 1.66748 16.9153H6.66748V14.9153H1.66748C1.11748 14.9153 0.66748 15.3653 0.66748 15.9153ZM0.66748 3.91528C0.66748 4.46528 1.11748 4.91528 1.66748 4.91528H10.6675V2.91528H1.66748C1.11748 2.91528 0.66748 3.36528 0.66748 3.91528ZM10.6675 17.9153V16.9153H17.6675C18.2175 16.9153 18.6675 16.4653 18.6675 15.9153C18.6675 15.3653 18.2175 14.9153 17.6675 14.9153H10.6675V13.9153C10.6675 13.3653 10.2175 12.9153 9.66748 12.9153C9.11748 12.9153 8.66748 13.3653 8.66748 13.9153V17.9153C8.66748 18.4653 9.11748 18.9153 9.66748 18.9153C10.2175 18.9153 10.6675 18.4653 10.6675 17.9153ZM4.66748 7.91528V8.91528H1.66748C1.11748 8.91528 0.66748 9.36528 0.66748 9.91528C0.66748 10.4653 1.11748 10.9153 1.66748 10.9153H4.66748V11.9153C4.66748 12.4653 5.11748 12.9153 5.66748 12.9153C6.21748 12.9153 6.66748 12.4653 6.66748 11.9153V7.91528C6.66748 7.36528 6.21748 6.91528 5.66748 6.91528C5.11748 6.91528 4.66748 7.36528 4.66748 7.91528ZM18.6675 9.91528C18.6675 9.36528 18.2175 8.91528 17.6675 8.91528H8.66748V10.9153H17.6675C18.2175 10.9153 18.6675 10.4653 18.6675 9.91528ZM13.6675 6.91528C14.2175 6.91528 14.6675 6.46528 14.6675 5.91528V4.91528H17.6675C18.2175 4.91528 18.6675 4.46528 18.6675 3.91528C18.6675 3.36528 18.2175 2.91528 17.6675 2.91528H14.6675V1.91528C14.6675 1.36528 14.2175 0.915283 13.6675 0.915283C13.1175 0.915283 12.6675 1.36528 12.6675 1.91528V5.91528C12.6675 6.46528 13.1175 6.91528 13.6675 6.91528Z" fill="#52606F"/>
</svg>
