<svg width="17" height="17" viewBox="0 0 17 17" fill="none" xmlns="http://www.w3.org/2000/svg">
<path d="M14.2484 2.83559C12.6184 1.20559 10.3084 0.265588 7.76841 0.525588C4.09841 0.895588 1.07841 3.87559 0.66841 7.54559C0.11841 12.3956 3.86841 16.4856 8.59841 16.4856C11.7884 16.4856 14.5284 14.6156 15.8084 11.9256C16.1284 11.2556 15.6484 10.4856 14.9084 10.4856C14.5384 10.4856 14.1884 10.6856 14.0284 11.0156C12.8984 13.4456 10.1884 14.9856 7.22841 14.3256C5.00841 13.8356 3.21841 12.0256 2.74841 9.80559C1.90841 5.92559 4.85841 2.48559 8.59841 2.48559C10.2584 2.48559 11.7384 3.17559 12.8184 4.26559L11.3084 5.77559C10.6784 6.40559 11.1184 7.48559 12.0084 7.48559H15.5984C16.1484 7.48559 16.5984 7.03559 16.5984 6.48559V2.89559C16.5984 2.00559 15.5184 1.55559 14.8884 2.18559L14.2484 2.83559Z" fill="black"/>
</svg>
