<svg width="13" height="11" viewBox="0 0 13 11" fill="none" xmlns="http://www.w3.org/2000/svg">
<path d="M7.32542 1.32763L7.32543 1.32764L7.32843 1.3246C7.4209 1.23053 7.57317 1.22578 7.6748 1.32413C7.73286 1.38315 7.75905 1.46652 7.74183 1.55471L7.26729 3.84253L7.14251 4.44408H7.75687H10.5819C11.2967 4.44408 11.7821 5.1764 11.5018 5.83818C11.5018 5.83838 11.5017 5.83859 11.5016 5.8388L9.87322 9.63995C9.79109 9.82561 9.60909 9.94408 9.41187 9.94408H4.91187C4.63801 9.94408 4.41187 9.71793 4.41187 9.44408V4.44908C4.41187 4.31498 4.46538 4.18766 4.55542 4.09763L7.32542 1.32763ZM2.41187 9.44408C2.41187 9.71793 2.18572 9.94408 1.91187 9.94408C1.63801 9.94408 1.41187 9.71793 1.41187 9.44408V5.44408C1.41187 5.17022 1.63801 4.94408 1.91187 4.94408C2.18572 4.94408 2.41187 5.17022 2.41187 5.44408V9.44408Z" stroke="black"/>
</svg>
