<svg width="13" height="11" viewBox="0 0 13 11" fill="none" xmlns="http://www.w3.org/2000/svg">
<path d="M6.97187 0.974076L4.20187 3.74408C4.01687 3.92908 3.91187 4.18408 3.91187 4.44908V9.44408C3.91187 9.99408 4.36187 10.4441 4.91187 10.4441H9.41187C9.81186 10.4441 10.1719 10.2041 10.3319 9.83908L11.9619 6.03408C12.3819 5.04408 11.6569 3.94408 10.5819 3.94408H7.75687L8.23187 1.65408C8.28187 1.40408 8.20686 1.14908 8.02687 0.969076C7.73186 0.679076 7.26187 0.679076 6.97187 0.974076ZM1.91187 10.4441C2.46187 10.4441 2.91187 9.99408 2.91187 9.44408V5.44408C2.91187 4.89408 2.46187 4.44408 1.91187 4.44408C1.36187 4.44408 0.911865 4.89408 0.911865 5.44408V9.44408C0.911865 9.99408 1.36187 10.4441 1.91187 10.4441Z" fill="#00639C"/>
</svg>
