<svg width="21" height="21" viewBox="0 0 21 21" fill="none" xmlns="http://www.w3.org/2000/svg">
<mask id="mask0_190_825" style="mask-type:alpha" maskUnits="userSpaceOnUse" x="0" y="0" width="21" height="21">
<circle cx="10.0409" cy="10.4434" r="10" fill="#D9D9D9"/>
</mask>
<g mask="url(#mask0_190_825)">
<rect x="13.0409" y="-2.22314" width="1" height="12.6665" rx="0.5" fill="black"/>
<rect x="7.04089" y="-2.22314" width="1" height="7" rx="0.5" fill="black"/>
<rect x="11.0409" y="-2.22314" width="1" height="8.6665" rx="0.5" fill="black"/>
<rect x="5.04089" y="-2.22314" width="1" height="5" rx="0.5" fill="black"/>
<rect x="15.0409" y="-2.22314" width="1" height="11" rx="0.5" fill="black"/>
<rect x="9.04089" y="-2.22314" width="1" height="6" rx="0.5" fill="black"/>
<rect x="17.0409" y="-2.22314" width="1" height="10" rx="0.5" fill="black"/>
<rect x="19.0409" y="-2.22314" width="1" height="12" rx="0.5" fill="black"/>
<path d="M22.5305 9.94523C22.8221 9.88011 23.0893 10.1472 23.0241 10.4388C22.4608 12.961 22.148 16.4783 20.3546 18.2718C18.5611 20.0653 15.0439 20.3781 12.5217 20.9415C12.2301 21.0066 11.963 20.7395 12.0281 20.4479C12.5914 17.9257 12.9042 14.4084 14.6977 12.6149C16.4912 10.8214 20.0084 10.5086 22.5305 9.94523Z" fill="black"/>
<path d="M2.96983 3.37225C1.09446 5.24761 0.0408934 7.79115 0.0408939 10.4433C0.0408936 13.0955 1.09446 15.639 2.96983 17.5144C4.84519 19.3897 7.38873 20.4433 10.0409 20.4433C12.6931 20.4433 15.2366 19.3897 17.112 17.5144L10.0409 10.4433L2.96983 3.37225Z" fill="black"/>
</g>
</svg>
