<svg width="53" height="19" viewBox="0 0 53 19" fill="none" xmlns="http://www.w3.org/2000/svg">
<path d="M13.1387 0.693359L8.33871 13.8934H5.11871L0.298706 0.693359H3.21871L5.99871 9.09336L6.75871 11.6934L7.49871 9.11336L10.2987 0.693359H13.1387Z" fill="black"/>
<path d="M17.8229 14.0934C16.7696 14.0934 15.8496 13.8867 15.0629 13.4734C14.2896 13.06 13.6896 12.4667 13.2629 11.6934C12.8363 10.92 12.6229 9.98669 12.6229 8.89336C12.6229 7.80003 12.8363 6.86669 13.2629 6.09336C13.6896 5.32003 14.2829 4.72669 15.0429 4.31336C15.8163 3.90003 16.6963 3.69336 17.6829 3.69336C18.6963 3.69336 19.5563 3.90003 20.2629 4.31336C20.9696 4.71336 21.5096 5.26669 21.8829 5.97336C22.2563 6.66669 22.4429 7.46003 22.4429 8.35336C22.4429 8.62003 22.4363 8.87336 22.4229 9.11336C22.4096 9.35336 22.3896 9.56669 22.3629 9.75336H14.3829V7.85336H21.1629L19.8429 8.33336C19.8429 7.49336 19.6496 6.84669 19.2629 6.39336C18.8896 5.94003 18.3563 5.71336 17.6629 5.71336C17.1563 5.71336 16.7163 5.83336 16.3429 6.07336C15.9829 6.31336 15.7096 6.67336 15.5229 7.15336C15.3363 7.62003 15.2429 8.21336 15.2429 8.93336C15.2429 9.64003 15.3429 10.2267 15.5429 10.6934C15.7563 11.1467 16.0496 11.4867 16.4229 11.7134C16.8096 11.94 17.2696 12.0534 17.8029 12.0534C18.3896 12.0534 18.8629 11.94 19.2229 11.7134C19.5829 11.4867 19.8629 11.1734 20.0629 10.7734L22.2429 11.6134C22.0296 12.1334 21.7029 12.58 21.2629 12.9534C20.8363 13.3267 20.3229 13.6134 19.7229 13.8134C19.1363 14 18.5029 14.0934 17.8229 14.0934Z" fill="black"/>
<path d="M24.165 13.8934V3.89336H26.545L26.725 5.85336C26.9916 5.16003 27.3783 4.62669 27.885 4.25336C28.405 3.88003 29.0516 3.69336 29.825 3.69336C30.0516 3.69336 30.2583 3.71336 30.445 3.75336C30.6316 3.79336 30.785 3.84669 30.905 3.91336L30.585 6.21336C30.4516 6.16003 30.285 6.12003 30.085 6.09336C29.8983 6.06669 29.6516 6.05336 29.345 6.05336C28.945 6.05336 28.5583 6.15336 28.185 6.35336C27.8116 6.54003 27.505 6.83336 27.265 7.23336C27.025 7.62003 26.905 8.11336 26.905 8.71336V13.8934H24.165Z" fill="black"/>
<path d="M32.0025 13.8934V3.89336H34.4625L34.6225 6.89336L34.2825 6.57336C34.4425 5.92003 34.6958 5.38003 35.0425 4.95336C35.3891 4.52669 35.8091 4.21336 36.3025 4.01336C36.8091 3.80003 37.3625 3.69336 37.9625 3.69336C38.6558 3.69336 39.2691 3.82669 39.8025 4.09336C40.3491 4.36003 40.7758 4.76669 41.0825 5.31336C41.4025 5.84669 41.5625 6.52003 41.5625 7.33336V13.8934H38.8225V8.11336C38.8225 7.26003 38.6558 6.67336 38.3225 6.35336C37.9891 6.02003 37.5558 5.85336 37.0225 5.85336C36.6491 5.85336 36.2825 5.94669 35.9225 6.13336C35.5758 6.30669 35.2891 6.59336 35.0625 6.99336C34.8491 7.39336 34.7425 7.92669 34.7425 8.59336V13.8934H32.0025Z" fill="black"/>
<path d="M52.8142 3.89336L48.7742 14.5134C48.4542 15.42 48.0942 16.14 47.6942 16.6734C47.3075 17.2067 46.8542 17.5934 46.3342 17.8334C45.8275 18.0734 45.2208 18.1934 44.5142 18.1934C43.9942 18.1934 43.5142 18.1267 43.0742 17.9934C42.6475 17.8734 42.2742 17.7134 41.9542 17.5134L42.5342 15.5334C42.7875 15.7334 43.0542 15.8734 43.3342 15.9534C43.6142 16.0467 43.9342 16.0934 44.2942 16.0934C44.6675 16.0934 44.9875 16.0134 45.2542 15.8534C45.5342 15.6934 45.7675 15.3734 45.9542 14.8934L46.2942 14.0334L45.1942 11.4334L42.1342 3.89336H45.1742L47.0742 9.89336L47.5942 11.8934L48.2142 9.77336L50.0342 3.89336H52.8142Z" fill="black"/>
</svg>
