<svg width="19" height="19" viewBox="0 0 19 19" fill="none" xmlns="http://www.w3.org/2000/svg">
<path d="M12.1556 2.75026L7.15561 1.00026C6.73561 0.850257 6.27562 0.850257 5.85562 0.990257L1.86562 2.33026C1.05562 2.61026 0.505615 3.37026 0.505615 4.23026V16.0803C0.505615 17.4903 1.91562 18.4503 3.22562 17.9403L6.15561 16.8003C6.37561 16.7103 6.62562 16.7103 6.84562 16.7903L11.8456 18.5403C12.2656 18.6903 12.7256 18.6903 13.1456 18.5503L17.1356 17.2103C17.9456 16.9403 18.4956 16.1703 18.4956 15.3103V3.46026C18.4956 2.05026 17.0856 1.09026 15.7756 1.60026L12.8456 2.74026C12.6256 2.82026 12.3856 2.83026 12.1556 2.75026ZM12.5056 16.6603L6.50562 14.5503V2.88026L12.5056 4.99026V16.6603Z" fill="#00639C"/>
</svg>
