<svg width="17" height="21" viewBox="0 0 17 21" fill="none" xmlns="http://www.w3.org/2000/svg">
<path fill-rule="evenodd" clip-rule="evenodd" d="M2.00562 0.886475C0.901046 0.886475 0.00561523 1.78191 0.00561523 2.88648V18.8865C0.00561523 19.991 0.901046 20.8865 2.00562 20.8865H14.0056C15.1102 20.8865 16.0056 19.991 16.0056 18.8865V2.88647C16.0056 1.78191 15.1102 0.886475 14.0056 0.886475H2.00562ZM14.0056 2.88647H2.00562V18.8865H14.0056V2.88647Z" fill="#00639C"/>
<path d="M5.60562 13.6863C6.48927 13.6863 7.20562 12.97 7.20562 12.0863C7.20562 11.2027 6.48927 10.4863 5.60562 10.4863C4.72196 10.4863 4.00562 11.2027 4.00562 12.0863C4.00562 12.97 4.72196 13.6863 5.60562 13.6863Z" fill="#00639C"/>
<path d="M9.40564 14.8865C9.95792 14.8865 10.4056 14.4388 10.4056 13.8865C10.4056 13.3342 9.95792 12.8865 9.40564 12.8865C8.85335 12.8865 8.40564 13.3342 8.40564 13.8865C8.40564 14.4388 8.85335 14.8865 9.40564 14.8865Z" fill="#00639C"/>
<path d="M9.60557 11.6865C10.931 11.6865 12.0056 10.612 12.0056 9.28647C12.0056 7.96099 10.931 6.88647 9.60557 6.88647C8.28008 6.88647 7.20557 7.96099 7.20557 9.28647C7.20557 10.612 8.28008 11.6865 9.60557 11.6865Z" fill="#00639C"/>
</svg>
