<svg width="5" height="16" viewBox="0 0 5 16" fill="none" xmlns="http://www.w3.org/2000/svg">
<path d="M2.16992 4C3.26992 4 4.16992 3.1 4.16992 2C4.16992 0.9 3.26992 0 2.16992 0C1.06992 0 0.169922 0.9 0.169922 2C0.169922 3.1 1.06992 4 2.16992 4ZM2.16992 6C1.06992 6 0.169922 6.9 0.169922 8C0.169922 9.1 1.06992 10 2.16992 10C3.26992 10 4.16992 9.1 4.16992 8C4.16992 6.9 3.26992 6 2.16992 6ZM2.16992 12C1.06992 12 0.169922 12.9 0.169922 14C0.169922 15.1 1.06992 16 2.16992 16C3.26992 16 4.16992 15.1 4.16992 14C4.16992 12.9 3.26992 12 2.16992 12Z" fill="black"/>
</svg>
