<svg width="25" height="34" viewBox="0 0 25 34" fill="none" xmlns="http://www.w3.org/2000/svg">
<path d="M12.78 1.33936C6.66362 1.33936 1.71753 6.28545 1.71753 12.4019C1.71753 15.7031 3.48597 19.7372 5.72482 23.4883C7.94502 27.208 10.5499 30.5238 12.0737 32.3574L12.78 1.33936ZM12.78 1.33936C18.8964 1.33936 23.8425 6.28545 23.8425 12.4019C23.8425 15.7031 22.0741 19.7373 19.8372 23.4885C17.6193 27.208 15.0188 30.5236 13.5025 32.3582M12.78 1.33936L13.5025 32.3582M13.5025 32.3582C13.1274 32.8073 12.4494 32.8073 12.0743 32.3581L13.5025 32.3582ZM7.81128 12.4019C7.81128 15.1448 10.0371 17.3706 12.78 17.3706C15.523 17.3706 17.7488 15.1448 17.7488 12.4019C17.7488 9.6589 15.523 7.43311 12.78 7.43311C10.0371 7.43311 7.81128 9.6589 7.81128 12.4019Z" fill="#66B1F4" stroke="#4896D7" stroke-width="1.5"/>
</svg>
