<svg width="33" height="33" viewBox="0 0 33 33" fill="none" xmlns="http://www.w3.org/2000/svg">
<g filter="url(#filter0_d_380_9515)">
<path d="M4.54248 6.5C4.54248 3.18629 7.22877 0.5 10.5425 0.5H22.5425C25.8562 0.5 28.5425 3.18629 28.5425 6.5V18.5C28.5425 21.8137 25.8562 24.5 22.5425 24.5H10.5425C7.22877 24.5 4.54248 21.8137 4.54248 18.5V6.5Z" fill="white"/>
</g>
<path d="M20.5425 9H18.9575L18.3375 8.325C18.1525 8.12 17.8825 8 17.6025 8H15.4825C15.2025 8 14.9325 8.12 14.7425 8.325L14.1275 9H12.5425C11.9925 9 11.5425 9.45 11.5425 10V16C11.5425 16.55 11.9925 17 12.5425 17H20.5425C21.0925 17 21.5425 16.55 21.5425 16V10C21.5425 9.45 21.0925 9 20.5425 9ZM16.5425 15.5C15.1625 15.5 14.0425 14.38 14.0425 13C14.0425 11.62 15.1625 10.5 16.5425 10.5C17.9225 10.5 19.0425 11.62 19.0425 13C19.0425 14.38 17.9225 15.5 16.5425 15.5ZM16.5425 11L15.9175 12.375L14.5425 13L15.9175 13.625L16.5425 15L17.1675 13.625L18.5425 13L17.1675 12.375L16.5425 11Z" fill="#1A1C1E"/>
<defs>
<filter id="filter0_d_380_9515" x="0.54248" y="0.5" width="32" height="32" filterUnits="userSpaceOnUse" color-interpolation-filters="sRGB">
<feFlood flood-opacity="0" result="BackgroundImageFix"/>
<feColorMatrix in="SourceAlpha" type="matrix" values="0 0 0 0 0 0 0 0 0 0 0 0 0 0 0 0 0 0 127 0" result="hardAlpha"/>
<feOffset dy="4"/>
<feGaussianBlur stdDeviation="2"/>
<feComposite in2="hardAlpha" operator="out"/>
<feColorMatrix type="matrix" values="0 0 0 0 0 0 0 0 0 0.2 0 0 0 0 0.329412 0 0 0 0.04 0"/>
<feBlend mode="normal" in2="BackgroundImageFix" result="effect1_dropShadow_380_9515"/>
<feBlend mode="normal" in="SourceGraphic" in2="effect1_dropShadow_380_9515" result="shape"/>
</filter>
</defs>
</svg>
