<svg width="33" height="33" viewBox="0 0 33 33" fill="none" xmlns="http://www.w3.org/2000/svg">
<g filter="url(#filter0_d_380_9530)">
<path d="M4.04199 6.78809C4.04199 3.47438 6.72828 0.788086 10.042 0.788086H22.042C25.3557 0.788086 28.042 3.47438 28.042 6.78809V18.7881C28.042 22.1018 25.3557 24.7881 22.042 24.7881H10.042C6.72828 24.7881 4.04199 22.1018 4.04199 18.7881V6.78809Z" fill="#E2E2E5"/>
</g>
<g clip-path="url(#clip0_380_9530)">
<path d="M9.29199 16.883V19.163C9.29199 19.373 9.45699 19.538 9.66699 19.538H11.947C12.0445 19.538 12.142 19.5005 12.2095 19.4255L20.3995 11.243L17.587 8.43051L9.40449 16.613C9.32949 16.688 9.29199 16.778 9.29199 16.883ZM22.5745 9.06801C22.867 8.77551 22.867 8.30301 22.5745 8.01051L20.8195 6.25551C20.527 5.96301 20.0545 5.96301 19.762 6.25551L18.3895 7.62801L21.202 10.4405L22.5745 9.06801Z" fill="#0E1D2A"/>
</g>
<defs>
<filter id="filter0_d_380_9530" x="0.0419922" y="0.788086" width="32" height="32" filterUnits="userSpaceOnUse" color-interpolation-filters="sRGB">
<feFlood flood-opacity="0" result="BackgroundImageFix"/>
<feColorMatrix in="SourceAlpha" type="matrix" values="0 0 0 0 0 0 0 0 0 0 0 0 0 0 0 0 0 0 127 0" result="hardAlpha"/>
<feOffset dy="4"/>
<feGaussianBlur stdDeviation="2"/>
<feComposite in2="hardAlpha" operator="out"/>
<feColorMatrix type="matrix" values="0 0 0 0 0 0 0 0 0 0.2 0 0 0 0 0.329412 0 0 0 0.04 0"/>
<feBlend mode="normal" in2="BackgroundImageFix" result="effect1_dropShadow_380_9530"/>
<feBlend mode="normal" in="SourceGraphic" in2="effect1_dropShadow_380_9530" result="shape"/>
</filter>
<clipPath id="clip0_380_9530">
<rect width="18" height="18" fill="white" transform="translate(7.04199 3.78809)"/>
</clipPath>
</defs>
</svg>
