<svg width="33" height="32" viewBox="0 0 33 32" fill="none" xmlns="http://www.w3.org/2000/svg">
<g filter="url(#filter0_d_380_9524)">
<path d="M4.54248 6C4.54248 2.68629 7.22877 0 10.5425 0H22.5425C25.8562 0 28.5425 2.68629 28.5425 6V18C28.5425 21.3137 25.8562 24 22.5425 24H10.5425C7.22877 24 4.54248 21.3137 4.54248 18V6Z" fill="#F1F0F4"/>
</g>
<path d="M20.5425 8.5H18.9575L18.3375 7.825C18.1525 7.62 17.8825 7.5 17.6025 7.5H15.4825C15.2025 7.5 14.9325 7.62 14.7425 7.825L14.1275 8.5H12.5425C11.9925 8.5 11.5425 8.95 11.5425 9.5V15.5C11.5425 16.05 11.9925 16.5 12.5425 16.5H20.5425C21.0925 16.5 21.5425 16.05 21.5425 15.5V9.5C21.5425 8.95 21.0925 8.5 20.5425 8.5ZM16.5425 15C15.1625 15 14.0425 13.88 14.0425 12.5C14.0425 11.12 15.1625 10 16.5425 10C17.9225 10 19.0425 11.12 19.0425 12.5C19.0425 13.88 17.9225 15 16.5425 15ZM16.5425 10.5L15.9175 11.875L14.5425 12.5L15.9175 13.125L16.5425 14.5L17.1675 13.125L18.5425 12.5L17.1675 11.875L16.5425 10.5Z" fill="#1A1C1E"/>
<defs>
<filter id="filter0_d_380_9524" x="0.54248" y="0" width="32" height="32" filterUnits="userSpaceOnUse" color-interpolation-filters="sRGB">
<feFlood flood-opacity="0" result="BackgroundImageFix"/>
<feColorMatrix in="SourceAlpha" type="matrix" values="0 0 0 0 0 0 0 0 0 0 0 0 0 0 0 0 0 0 127 0" result="hardAlpha"/>
<feOffset dy="4"/>
<feGaussianBlur stdDeviation="2"/>
<feComposite in2="hardAlpha" operator="out"/>
<feColorMatrix type="matrix" values="0 0 0 0 0 0 0 0 0 0.2 0 0 0 0 0.329412 0 0 0 0.04 0"/>
<feBlend mode="normal" in2="BackgroundImageFix" result="effect1_dropShadow_380_9524"/>
<feBlend mode="normal" in="SourceGraphic" in2="effect1_dropShadow_380_9524" result="shape"/>
</filter>
</defs>
</svg>
