<svg width="25" height="25" viewBox="0 0 25 25" fill="none" xmlns="http://www.w3.org/2000/svg">
<g clip-path="url(#clip0_216_1987)">
<mask id="mask0_216_1987" style="mask-type:alpha" maskUnits="userSpaceOnUse" x="0" y="0" width="25" height="25">
<circle cx="12.2556" cy="12.8865" r="12" fill="black"/>
</mask>
<g mask="url(#mask0_216_1987)">
<path d="M12.2556 14.8865C15.0181 14.8865 17.2556 12.649 17.2556 9.88647C17.2556 7.12397 15.0181 4.88647 12.2556 4.88647C9.49312 4.88647 7.25562 7.12397 7.25562 9.88647C7.25562 12.649 9.49312 14.8865 12.2556 14.8865ZM12.2556 17.3865C8.91812 17.3865 2.25562 19.0615 2.25562 22.3865V23.6365C2.25562 24.324 2.81812 24.8865 3.50562 24.8865H21.0056C21.6931 24.8865 22.2556 24.324 22.2556 23.6365V22.3865C22.2556 19.0615 15.5931 17.3865 12.2556 17.3865Z" fill="#4896D7"/>
</g>
</g>
<defs>
<clipPath id="clip0_216_1987">
<rect width="24" height="24" fill="white" transform="translate(0.255615 0.886475)"/>
</clipPath>
</defs>
</svg>
