<svg width="33" height="33" viewBox="0 0 33 33" fill="none" xmlns="http://www.w3.org/2000/svg">
<g filter="url(#filter0_d_380_9524)">
<path d="M4.04199 6.28809C4.04199 2.97438 6.72828 0.288086 10.042 0.288086H22.042C25.3557 0.288086 28.042 2.97438 28.042 6.28809V18.2881C28.042 21.6018 25.3557 24.2881 22.042 24.2881H10.042C6.72828 24.2881 4.04199 21.6018 4.04199 18.2881V6.28809Z" fill="#F1F0F4"/>
</g>
<g clip-path="url(#clip0_380_9524)">
<path d="M9.29199 16.383V18.663C9.29199 18.873 9.45699 19.038 9.66699 19.038H11.947C12.0445 19.038 12.142 19.0005 12.2095 18.9255L20.3995 10.743L17.587 7.93051L9.40449 16.113C9.32949 16.188 9.29199 16.278 9.29199 16.383ZM22.5745 8.56801C22.867 8.27551 22.867 7.80301 22.5745 7.51051L20.8195 5.75551C20.527 5.46301 20.0545 5.46301 19.762 5.75551L18.3895 7.12801L21.202 9.94051L22.5745 8.56801Z" fill="#0E1D2A"/>
</g>
<defs>
<filter id="filter0_d_380_9524" x="0.0419922" y="0.288086" width="32" height="32" filterUnits="userSpaceOnUse" color-interpolation-filters="sRGB">
<feFlood flood-opacity="0" result="BackgroundImageFix"/>
<feColorMatrix in="SourceAlpha" type="matrix" values="0 0 0 0 0 0 0 0 0 0 0 0 0 0 0 0 0 0 127 0" result="hardAlpha"/>
<feOffset dy="4"/>
<feGaussianBlur stdDeviation="2"/>
<feComposite in2="hardAlpha" operator="out"/>
<feColorMatrix type="matrix" values="0 0 0 0 0 0 0 0 0 0.2 0 0 0 0 0.329412 0 0 0 0.04 0"/>
<feBlend mode="normal" in2="BackgroundImageFix" result="effect1_dropShadow_380_9524"/>
<feBlend mode="normal" in="SourceGraphic" in2="effect1_dropShadow_380_9524" result="shape"/>
</filter>
<clipPath id="clip0_380_9524">
<rect width="18" height="18" fill="white" transform="translate(7.04199 3.28809)"/>
</clipPath>
</defs>
</svg>
