<svg width="35" height="35" viewBox="0 0 35 35" fill="none" xmlns="http://www.w3.org/2000/svg">
<g clip-path="url(#clip0_504_2748)">
<mask id="mask0_504_2748" style="mask-type:alpha" maskUnits="userSpaceOnUse" x="0" y="0" width="35" height="35">
<circle cx="17.25" cy="17.418" r="16.875" fill="black"/>
</mask>
<g mask="url(#mask0_504_2748)">
<path d="M17.25 20.2305C21.1348 20.2305 24.2812 17.084 24.2812 13.1992C24.2812 9.31445 21.1348 6.16797 17.25 6.16797C13.3652 6.16797 10.2188 9.31445 10.2188 13.1992C10.2188 17.084 13.3652 20.2305 17.25 20.2305ZM17.25 23.7461C12.5566 23.7461 3.1875 26.1016 3.1875 30.7773V32.5352C3.1875 33.502 3.97852 34.293 4.94531 34.293H29.5547C30.5215 34.293 31.3125 33.502 31.3125 32.5352V30.7773C31.3125 26.1016 21.9434 23.7461 17.25 23.7461Z" fill="#6A7889"/>
</g>
</g>
<defs>
<clipPath id="clip0_504_2748">
<rect width="33.75" height="33.75" fill="white" transform="translate(0.375 0.542969)"/>
</clipPath>
</defs>
</svg>
