<svg width="16" height="16" viewBox="0 0 16 16" fill="none" xmlns="http://www.w3.org/2000/svg">
<path d="M8 0.5C3.86 0.5 0.5 3.86 0.5 8C0.5 12.14 3.86 15.5 8 15.5C12.14 15.5 15.5 12.14 15.5 8C15.5 3.86 12.14 0.5 8 0.5ZM8 14C4.685 14 2 11.315 2 8C2 4.685 4.685 2 8 2C11.315 2 14 4.685 14 8C14 11.315 11.315 14 8 14Z" fill="#6A7889"/>
<path d="M8 11.75C10.0711 11.75 11.75 10.0711 11.75 8C11.75 5.92893 10.0711 4.25 8 4.25C5.92893 4.25 4.25 5.92893 4.25 8C4.25 10.0711 5.92893 11.75 8 11.75Z" fill="#6A7889"/>
</svg>
