<svg width="18" height="18" viewBox="0 0 18 18" fill="none" xmlns="http://www.w3.org/2000/svg">
<path d="M13.0596 11.9152H12.2696L11.9896 11.6452C13.1896 10.2452 13.8096 8.33518 13.4696 6.30518C12.9996 3.52518 10.6796 1.30518 7.87959 0.965176C3.64959 0.445176 0.0895856 4.00518 0.609586 8.23518C0.949586 11.0352 3.16959 13.3552 5.94959 13.8252C7.97959 14.1652 9.88959 13.5452 11.2896 12.3452L11.5596 12.6252V13.4152L15.8096 17.6652C16.2196 18.0752 16.8896 18.0752 17.2996 17.6652C17.7096 17.2552 17.7096 16.5852 17.2996 16.1752L13.0596 11.9152ZM7.05959 11.9152C4.56959 11.9152 2.55959 9.90518 2.55959 7.41518C2.55959 4.92518 4.56959 2.91518 7.05959 2.91518C9.54959 2.91518 11.5596 4.92518 11.5596 7.41518C11.5596 9.90518 9.54959 11.9152 7.05959 11.9152Z" fill="#52606F"/>
</svg>
