<svg width="65" height="64" viewBox="0 0 65 64" fill="none" xmlns="http://www.w3.org/2000/svg">
<g filter="url(#filter0_d_380_9728)">
<circle cx="32.6062" cy="31" r="24" fill="#004A77"/>
</g>
<g clip-path="url(#clip0_380_9728)">
<path d="M23.6062 36.4596V39.4996C23.6062 39.7796 23.8262 39.9996 24.1062 39.9996H27.1462C27.2762 39.9996 27.4062 39.9496 27.4962 39.8496L38.4162 28.9396L34.6662 25.1896L23.7562 36.0996C23.6562 36.1996 23.6062 36.3196 23.6062 36.4596ZM41.3162 26.0396C41.7062 25.6496 41.7062 25.0196 41.3162 24.6296L38.9762 22.2896C38.5862 21.8996 37.9562 21.8996 37.5662 22.2896L35.7362 24.1196L39.4862 27.8696L41.3162 26.0396Z" fill="white"/>
</g>
<defs>
<filter id="filter0_d_380_9728" x="0.606201" y="0" width="64" height="64" filterUnits="userSpaceOnUse" color-interpolation-filters="sRGB">
<feFlood flood-opacity="0" result="BackgroundImageFix"/>
<feColorMatrix in="SourceAlpha" type="matrix" values="0 0 0 0 0 0 0 0 0 0 0 0 0 0 0 0 0 0 127 0" result="hardAlpha"/>
<feOffset dy="1"/>
<feGaussianBlur stdDeviation="4"/>
<feComposite in2="hardAlpha" operator="out"/>
<feColorMatrix type="matrix" values="0 0 0 0 0 0 0 0 0 0.2 0 0 0 0 0.329412 0 0 0 0.2 0"/>
<feBlend mode="normal" in2="BackgroundImageFix" result="effect1_dropShadow_380_9728"/>
<feBlend mode="normal" in="SourceGraphic" in2="effect1_dropShadow_380_9728" result="shape"/>
</filter>
<clipPath id="clip0_380_9728">
<rect width="24" height="24" fill="white" transform="translate(20.6062 19)"/>
</clipPath>
</defs>
</svg>
