<svg width="65" height="68" viewBox="0 0 65 68" fill="none" xmlns="http://www.w3.org/2000/svg">
<g filter="url(#filter0_d_380_9700)">
<circle cx="32.6062" cy="24" r="24" fill="white"/>
</g>
<g clip-path="url(#clip0_380_9700)">
<path d="M23.6062 29.4596V32.4996C23.6062 32.7796 23.8262 32.9996 24.1062 32.9996H27.1462C27.2762 32.9996 27.4062 32.9496 27.4962 32.8496L38.4162 21.9396L34.6662 18.1896L23.7562 29.0996C23.6562 29.1996 23.6062 29.3196 23.6062 29.4596ZM41.3162 19.0396C41.7062 18.6496 41.7062 18.0196 41.3162 17.6296L38.9762 15.2896C38.5862 14.8996 37.9562 14.8996 37.5662 15.2896L35.7362 17.1196L39.4862 20.8696L41.3162 19.0396Z" fill="#00639C"/>
</g>
<defs>
<filter id="filter0_d_380_9700" x="0.606201" y="0" width="64" height="68" filterUnits="userSpaceOnUse" color-interpolation-filters="sRGB">
<feFlood flood-opacity="0" result="BackgroundImageFix"/>
<feColorMatrix in="SourceAlpha" type="matrix" values="0 0 0 0 0 0 0 0 0 0 0 0 0 0 0 0 0 0 127 0" result="hardAlpha"/>
<feOffset dy="12"/>
<feGaussianBlur stdDeviation="4"/>
<feComposite in2="hardAlpha" operator="out"/>
<feColorMatrix type="matrix" values="0 0 0 0 0 0 0 0 0 0.2 0 0 0 0 0.329412 0 0 0 0.2 0"/>
<feBlend mode="normal" in2="BackgroundImageFix" result="effect1_dropShadow_380_9700"/>
<feBlend mode="normal" in="SourceGraphic" in2="effect1_dropShadow_380_9700" result="shape"/>
</filter>
<clipPath id="clip0_380_9700">
<rect width="24" height="24" fill="white" transform="translate(20.6062 12)"/>
</clipPath>
</defs>
</svg>
