<svg width="25" height="21" viewBox="0 0 25 21" fill="none" xmlns="http://www.w3.org/2000/svg">
<path d="M4.9327 1.09987C4.54217 0.709345 3.90537 0.706849 3.54871 1.12852C2.23887 2.67709 1.33923 4.53706 0.941416 6.53697C0.47839 8.86474 0.716032 11.2775 1.62429 13.4703C2.53255 15.663 4.07063 17.5371 6.04404 18.8557C8.01745 20.1743 10.3375 20.8781 12.7109 20.8781C15.0843 20.8781 17.4044 20.1743 19.3778 18.8557C21.3512 17.5371 22.8893 15.663 23.7976 13.4703C24.7058 11.2775 24.9435 8.86474 24.4805 6.53697C24.0826 4.53706 23.183 2.67709 21.8732 1.12852C21.5165 0.706849 20.8797 0.709345 20.4892 1.09987L13.418 8.17094C13.0275 8.56147 12.3944 8.56147 12.0038 8.17094L4.9327 1.09987Z" fill="#CFE5FF"/>
</svg>
