<svg width="114" height="120" viewBox="0 0 114 120" fill="none" xmlns="http://www.w3.org/2000/svg">
<rect x="135.861" width="8" height="53.3333" rx="4" transform="rotate(90 135.861 0)" fill="#6A7889"/>
<rect x="135.861" y="16" width="8" height="74.6666" rx="4" transform="rotate(90 135.861 16)" fill="#6A7889"/>
<rect x="135.861" y="32" width="8" height="63.9999" rx="4" transform="rotate(90 135.861 32)" fill="#6A7889"/>
<rect x="135.861" y="48" width="8" height="92.4426" rx="4" transform="rotate(90 135.861 48)" fill="#6A7889"/>
<rect x="135.861" y="64" width="8" height="135.109" rx="4" transform="rotate(90 135.861 64)" fill="#6A7889"/>
<rect x="135.861" y="80" width="8" height="117.333" rx="4" transform="rotate(90 135.861 80)" fill="#6A7889"/>
<rect x="135.861" y="96" width="8" height="106.667" rx="4" transform="rotate(90 135.861 96)" fill="#6A7889"/>
<rect x="135.861" y="112" width="8" height="128" rx="4" transform="rotate(90 135.861 112)" fill="#6A7889"/>
</svg>
