<svg width="361" height="801" viewBox="0 0 361 801" fill="none" xmlns="http://www.w3.org/2000/svg">
<g clip-path="url(#clip0_476_5296)">
<rect x="0.648926" y="0.289062" width="360" height="800" fill="url(#paint0_linear_476_5296)"/>
<path d="M239.608 519.51C239.273 518.007 240.651 516.629 242.154 516.963C254.758 519.766 272.274 521.345 281.218 530.289C290.162 539.232 291.741 556.748 294.544 569.352C294.878 570.854 293.501 572.232 291.998 571.898C279.394 569.096 261.877 567.516 252.934 558.573C243.99 549.629 242.41 532.113 239.608 519.51Z" fill="#FFD6F7"/>
<path d="M113.768 519.979C114.835 519.693 115.48 518.59 115.063 517.567C114.525 516.246 113.811 514.999 112.939 513.863C111.659 512.196 110.065 510.797 108.245 509.746C106.425 508.696 104.416 508.014 102.333 507.74C100.913 507.553 99.4764 507.558 98.0629 507.752C96.9686 507.903 96.3355 509.013 96.6214 510.08L99.7273 521.671C100.013 522.738 101.11 523.371 102.177 523.085L113.768 519.979Z" fill="#66B1F4"/>
<path d="M181.257 273.342C181.809 274.298 183.046 274.638 183.898 273.934C185.809 272.356 187.198 270.213 187.848 267.787C188.671 264.713 188.24 261.438 186.649 258.681C185.058 255.925 182.437 253.914 179.362 253.09C176.937 252.44 174.386 252.572 172.064 253.438C171.029 253.824 170.704 255.065 171.257 256.021L176.257 264.681L181.257 273.342Z" fill="#267CBC"/>
<path d="M90.091 280.607C91.63 280.649 92.595 282.32 91.8615 283.674C80.6826 304.302 69.7059 335.991 49.1937 347.834C28.6814 359.678 -4.24994 353.34 -27.7037 352.708C-29.2427 352.666 -30.2077 350.995 -29.4742 349.641C-18.2953 329.013 -7.31853 297.324 13.1937 285.481C33.7059 273.637 66.6373 279.975 90.091 280.607Z" fill="#E2BBDB"/>
<rect x="382.649" y="204.289" width="8" height="53.3333" rx="4" transform="rotate(90 382.649 204.289)" fill="#6A7889"/>
<rect x="382.649" y="220.289" width="8" height="74.6666" rx="4" transform="rotate(90 382.649 220.289)" fill="#6A7889"/>
<rect x="382.649" y="236.289" width="8" height="63.9999" rx="4" transform="rotate(90 382.649 236.289)" fill="#6A7889"/>
<rect x="382.649" y="252.289" width="8" height="92.4426" rx="4" transform="rotate(90 382.649 252.289)" fill="#6A7889"/>
<rect x="382.649" y="268.289" width="8" height="135.109" rx="4" transform="rotate(90 382.649 268.289)" fill="#6A7889"/>
<rect x="382.649" y="284.289" width="8" height="117.333" rx="4" transform="rotate(90 382.649 284.289)" fill="#6A7889"/>
<rect x="382.649" y="300.289" width="8" height="106.667" rx="4" transform="rotate(90 382.649 300.289)" fill="#6A7889"/>
<rect x="382.649" y="316.289" width="8" height="128" rx="4" transform="rotate(90 382.649 316.289)" fill="#6A7889"/>
<path d="M107.093 148.732C106.312 147.951 105.038 147.946 104.325 148.789C101.705 151.886 99.9057 155.606 99.1101 159.606C98.184 164.262 98.6593 169.087 100.476 173.473C102.292 177.858 105.368 181.606 109.315 184.244C113.262 186.881 117.902 188.288 122.649 188.288C127.396 188.288 132.036 186.881 135.983 184.244C139.929 181.606 143.006 177.858 144.822 173.473C146.639 169.087 147.114 164.262 146.188 159.606C145.392 155.606 143.593 151.886 140.973 148.789C140.26 147.946 138.986 147.951 138.205 148.732L124.063 162.874C123.282 163.655 122.016 163.655 121.235 162.874L107.093 148.732Z" fill="#98CBFF"/>
</g>
<defs>
<linearGradient id="paint0_linear_476_5296" x1="180.649" y1="200.538" x2="180.649" y2="800.289" gradientUnits="userSpaceOnUse">
<stop stop-opacity="0"/>
<stop offset="1"/>
</linearGradient>
<clipPath id="clip0_476_5296">
<rect width="360" height="800" fill="white" transform="translate(0.648926 0.289062)"/>
</clipPath>
</defs>
</svg>
